<svg width="24" height="24" viewBox="0 0 24 24" fill="none" xmlns="http://www.w3.org/2000/svg">
<path d="M12.7071 1.29289C12.3166 0.902369 11.6834 0.902369 11.2929 1.29289L7.29289 5.29289C6.90237 5.68342 6.90237 6.31658 7.29289 6.70711C7.68342 7.09763 8.31658 7.09763 8.70711 6.70711L12 3.41421L15.2929 6.70711C15.6834 7.09763 16.3166 7.09763 16.7071 6.70711C17.0976 6.31658 17.0976 5.68342 16.7071 5.29289L12.7071 1.29289Z" fill="white"/>
<path d="M8.70711 17.2929C8.31658 16.9024 7.68342 16.9024 7.29289 17.2929C6.90237 17.6834 6.90237 18.3166 7.29289 18.7071L11.2929 22.7071C11.6834 23.0976 12.3166 23.0976 12.7071 22.7071L16.7071 18.7071C17.0976 18.3166 17.0976 17.6834 16.7071 17.2929C16.3166 16.9024 15.6834 16.9024 15.2929 17.2929L12 20.5858L8.70711 17.2929Z" fill="white"/>
<path fill-rule="evenodd" clip-rule="evenodd" d="M2 10C2 9.44772 2.44772 9 3 9H21C21.5523 9 22 9.44772 22 10V14C22 14.5523 21.5523 15 21 15H3C2.44772 15 2 14.5523 2 14V10ZM4 13V11H20V13H4Z" fill="white"/>
</svg>
