<svg width="24" height="24" viewBox="0 0 24 24" fill="none" xmlns="http://www.w3.org/2000/svg">
<path d="M7.29289 1.29289C7.68342 0.902369 8.31658 0.902369 8.70711 1.29289L12 4.58579L15.2929 1.29289C15.6834 0.902369 16.3166 0.902369 16.7071 1.29289C17.0976 1.68342 17.0976 2.31658 16.7071 2.70711L12.7071 6.70711C12.3166 7.09763 11.6834 7.09763 11.2929 6.70711L7.29289 2.70711C6.90237 2.31658 6.90237 1.68342 7.29289 1.29289Z" fill="white"/>
<path d="M7.29289 22.7071C7.68342 23.0976 8.31658 23.0976 8.70711 22.7071L12 19.4142L15.2929 22.7071C15.6834 23.0976 16.3166 23.0976 16.7071 22.7071C17.0976 22.3166 17.0976 21.6834 16.7071 21.2929L12.7071 17.2929C12.3166 16.9024 11.6834 16.9024 11.2929 17.2929L7.29289 21.2929C6.90237 21.6834 6.90237 22.3166 7.29289 22.7071Z" fill="white"/>
<path fill-rule="evenodd" clip-rule="evenodd" d="M2 10C2 9.44772 2.44772 9 3 9H21C21.5523 9 22 9.44772 22 10V14C22 14.5523 21.5523 15 21 15H3C2.44772 15 2 14.5523 2 14V10ZM4 13V11H20V13H4Z" fill="white"/>
</svg>
